<svg width="170" height="60" viewBox="0 0 170 60" fill="none" xmlns="http://www.w3.org/2000/svg">
<g clip-path="url(#clip0_511_16074)">
<path opacity="0.973" fill-rule="evenodd" clip-rule="evenodd" d="M66.3247 0.0306365C68.1294 -0.0669884 69.9138 0.0686858 71.6771 0.437892C72.796 0.763929 73.7655 1.32629 74.5861 2.12509C73.7679 3.13869 72.8952 4.10832 71.9681 5.03406C70.5084 3.65545 68.7825 3.17069 66.79 3.57958C64.7334 4.16253 63.4728 5.50065 63.0084 7.59394C62.5915 10.1918 63.503 12.1504 65.7428 13.4701C67.6014 14.0837 69.4244 13.9867 71.2118 13.1792C71.3278 12.2904 71.3666 11.3984 71.3282 10.5029C70.3584 10.5029 69.3888 10.5029 68.419 10.5029C68.419 9.37808 68.419 8.25335 68.419 7.12851C70.5911 7.12851 72.7631 7.12851 74.9352 7.12851C74.9734 10.0655 74.9346 12.9939 74.8188 15.9136C72.1263 17.1904 69.2951 17.6558 66.3247 17.3099C61.5858 16.4099 59.1423 13.5398 58.9941 8.69935C59.1611 3.86034 61.6046 0.970815 66.3247 0.0306365Z" fill="#8AC53E"/>
<path opacity="0.981" fill-rule="evenodd" clip-rule="evenodd" d="M16.9885 0.263672C22.3038 3.93025 26.5897 8.54585 29.8462 14.1104C32.9351 19.8114 33.2842 25.6681 30.8933 31.6805C30.2627 32.9819 29.4869 34.1842 28.5662 35.2877C28.6921 30.2247 27.8387 25.3376 26.0062 20.6264C24.9668 18.1193 23.4929 15.9084 21.5846 13.994C25.0672 20.3329 26.4442 27.1203 25.7154 34.3567C20.0907 31.5412 16.6194 27.042 15.3013 20.8591C14.4398 16.1232 14.4787 11.3913 15.4177 6.66341C15.8146 4.49436 16.3382 2.36103 16.9885 0.263672Z" fill="#52843E"/>
<path opacity="0.969" fill-rule="evenodd" clip-rule="evenodd" d="M29.6715 0.26383C39.1576 -0.274677 47.2059 2.82815 53.816 9.57252C56.0727 11.9656 57.8376 14.6805 59.1103 17.7176C57.7791 17.7809 56.4606 17.936 55.1542 18.183C49.6729 8.49771 41.3338 3.82405 30.137 4.16185C28.4941 4.34535 26.865 4.57806 25.2499 4.86C24.2239 3.93099 23.2155 2.98081 22.2246 2.00922C23.3372 1.49805 24.5007 1.12954 25.7154 0.903802C27.0418 0.63199 28.3605 0.418587 29.6715 0.26383Z" fill="#8AC53E"/>
<path opacity="0.981" fill-rule="evenodd" clip-rule="evenodd" d="M79.5894 0.379427C82.5414 0.327996 85.4888 0.386175 88.4328 0.553964C91.3649 1.35218 92.625 3.27211 92.2144 6.31372C91.8733 8.28402 90.7284 9.50578 88.7817 9.97901C90.1828 12.2192 91.5407 14.4881 92.8544 16.786C91.3825 16.9217 89.9081 16.9411 88.4328 16.8442C87.2935 14.7007 86.1684 12.5481 85.0583 10.3863C84.4811 10.2706 83.8994 10.2319 83.3129 10.2699C83.3129 12.4807 83.3129 14.6915 83.3129 16.9024C82.0714 16.9024 80.831 16.9024 79.5894 16.9024C79.5894 11.3948 79.5894 5.88704 79.5894 0.379427ZM83.3129 3.40475C84.6429 3.36961 85.9612 3.46655 87.269 3.69565C88.3734 4.2878 88.6642 5.16049 88.1417 6.31372C87.9242 6.57075 87.6718 6.78403 87.3854 6.95369C86.0381 7.17081 84.6801 7.26774 83.3129 7.24459C83.3129 5.96464 83.3129 4.6847 83.3129 3.40475Z" fill="#8AC53E"/>
<path opacity="0.99" fill-rule="evenodd" clip-rule="evenodd" d="M96.2286 0.379883C99.9906 0.379883 103.754 0.379883 107.515 0.379883C107.515 1.50472 107.515 2.62944 107.515 3.75428C104.994 3.75428 102.474 3.75428 99.9521 3.75428C99.9521 4.76277 99.9521 5.77113 99.9521 6.7796C102.357 6.7796 104.761 6.7796 107.166 6.7796C107.166 7.90444 107.166 9.02918 107.166 10.154C104.761 10.154 102.357 10.154 99.9521 10.154C99.9521 11.2788 99.9521 12.4036 99.9521 13.5284C102.628 13.5284 105.305 13.5284 107.981 13.5284C107.981 14.6532 107.981 15.778 107.981 16.9028C104.063 16.9028 100.146 16.9028 96.2286 16.9028C96.2286 11.3952 96.2286 5.88749 96.2286 0.379883Z" fill="#8AC53E"/>
<path opacity="0.99" fill-rule="evenodd" clip-rule="evenodd" d="M112.402 0.379883C116.164 0.379883 119.927 0.379883 123.689 0.379883C123.689 1.50472 123.689 2.62944 123.689 3.75428C121.168 3.75428 118.647 3.75428 116.126 3.75428C116.126 4.76277 116.126 5.77113 116.126 6.7796C118.531 6.7796 120.935 6.7796 123.34 6.7796C123.34 7.90444 123.34 9.02918 123.34 10.154C120.935 10.154 118.531 10.154 116.126 10.154C116.126 11.2788 116.126 12.4036 116.126 13.5284C118.802 13.5284 121.478 13.5284 124.155 13.5284C124.155 14.6532 124.155 15.778 124.155 16.9028C120.237 16.9028 116.32 16.9028 112.402 16.9028C112.402 11.3952 112.402 5.88749 112.402 0.379883Z" fill="#8AC53E"/>
<path opacity="0.982" fill-rule="evenodd" clip-rule="evenodd" d="M128.46 0.380335C130.167 0.360904 131.874 0.380335 133.58 0.438514C135.864 4.17164 138.133 7.91456 140.387 11.6671C140.445 7.90501 140.465 4.14279 140.445 0.380335C141.686 0.380335 142.927 0.380335 144.168 0.380335C144.168 5.88795 144.168 11.3957 144.168 16.9033C142.539 16.9227 140.91 16.9033 139.281 16.8451C136.92 13.0343 134.573 9.21394 132.241 5.38376C132.183 9.22336 132.164 13.0632 132.183 16.9033C130.942 16.9033 129.701 16.9033 128.46 16.9033C128.46 11.3957 128.46 5.88795 128.46 0.380335Z" fill="#8AC53E"/>
<path opacity="0.967" fill-rule="evenodd" clip-rule="evenodd" d="M13.2646 6.89648C13.3404 7.0069 13.3793 7.14258 13.3809 7.30373C13.091 9.17595 12.8777 11.0571 12.741 12.9471C8.20914 18.176 6.07582 24.2654 6.34123 31.2154C5.11587 31.4101 3.8941 31.6428 2.67593 31.9136C2.08681 21.8076 5.61643 13.4687 13.2646 6.89648Z" fill="#8AC53E"/>
<path opacity="0.985" fill-rule="evenodd" clip-rule="evenodd" d="M60.6231 19.4627C64.2773 19.387 67.9232 19.5229 71.5608 19.8699C71.6214 19.9353 71.6602 20.0129 71.6772 20.1026C68.9016 25.7852 65.3527 30.9243 61.0303 35.5202C58.0311 38.557 54.5597 40.9036 50.6161 42.56C46.3252 44.135 41.9424 44.4453 37.4677 43.4908C36.7886 43.331 36.1291 43.1175 35.4895 42.8508C41.0842 35.6121 48.2983 30.7443 57.1323 28.2478C52.2046 28.3388 47.6278 29.6575 43.4019 32.2039C39.2267 34.6937 35.5226 37.7773 32.2897 41.4545C33.0389 33.6116 36.8206 27.7356 43.6347 23.8262C46.7419 22.131 50.0387 20.9675 53.5251 20.3354C55.8935 19.9181 58.2595 19.6273 60.6231 19.4627Z" fill="#52843E"/>
<path opacity="0.984" fill-rule="evenodd" clip-rule="evenodd" d="M74.7021 20.5107C79.0853 20.5107 83.4674 20.5107 87.8506 20.5107C87.8506 21.5967 87.8506 22.6828 87.8506 23.7688C86.26 23.7688 84.6705 23.7688 83.0799 23.7688C83.0799 28.1904 83.0799 32.612 83.0799 37.0338C81.8384 37.0338 80.598 37.0338 79.3565 37.0338C79.3565 32.612 79.3565 28.1904 79.3565 23.7688C77.8054 23.7688 76.2531 23.7688 74.7021 23.7688C74.7021 22.6828 74.7021 21.5967 74.7021 20.5107Z" fill="#52843E"/>
<path opacity="0.977" fill-rule="evenodd" clip-rule="evenodd" d="M94.2503 20.5096C95.3395 20.471 96.4251 20.5097 97.5083 20.6259C99.8857 26.0725 102.252 31.5222 104.606 36.9744C103.169 37.0712 101.735 37.0518 100.301 36.9161C99.8403 35.8004 99.4132 34.6757 99.021 33.5418C96.8882 33.5418 94.7542 33.5418 92.6212 33.5418C92.2641 34.6896 91.8383 35.8144 91.3413 36.9161C89.9463 37.0518 88.55 37.0712 87.1525 36.9744C89.5343 31.4922 91.901 26.0039 94.2503 20.5096ZM95.6466 25.7458C95.7629 25.7422 95.8398 25.8005 95.8793 25.9202C96.4774 27.4442 97.0988 28.9568 97.7411 30.4582C96.4622 30.5165 95.1823 30.5358 93.9013 30.5165C94.5063 28.9352 95.0881 27.3448 95.6466 25.7458Z" fill="#52843E"/>
<path opacity="0.987" fill-rule="evenodd" clip-rule="evenodd" d="M107.864 20.5107C109.106 20.5107 110.346 20.5107 111.588 20.5107C111.588 24.8937 111.588 29.2764 111.588 33.6594C113.837 33.6594 116.087 33.6594 118.337 33.6594C118.337 34.7841 118.337 35.9089 118.337 37.0338C114.846 37.0338 111.355 37.0338 107.864 37.0338C107.864 31.5261 107.864 26.0185 107.864 20.5107Z" fill="#52843E"/>
<path opacity="0.99" fill-rule="evenodd" clip-rule="evenodd" d="M121.828 20.5107C125.589 20.5107 129.353 20.5107 133.114 20.5107C133.114 21.6357 133.114 22.7604 133.114 23.8852C130.593 23.8852 128.073 23.8852 125.551 23.8852C125.551 24.8937 125.551 25.9021 125.551 26.9105C127.956 26.9105 130.36 26.9105 132.765 26.9105C132.765 28.0354 132.765 29.1602 132.765 30.2849C130.36 30.2849 127.956 30.2849 125.551 30.2849C125.551 31.4097 125.551 32.5344 125.551 33.6594C128.227 33.6594 130.904 33.6594 133.58 33.6594C133.58 34.7841 133.58 35.9089 133.58 37.0338C129.662 37.0338 125.745 37.0338 121.828 37.0338C121.828 31.5261 121.828 26.0185 121.828 20.5107Z" fill="#52843E"/>
<path opacity="0.982" fill-rule="evenodd" clip-rule="evenodd" d="M137.885 20.5093C139.592 20.4898 141.299 20.5093 143.005 20.5675C145.289 24.3006 147.558 28.0434 149.812 31.7961C149.87 28.034 149.89 24.2718 149.87 20.5093C151.112 20.5093 152.352 20.5093 153.594 20.5093C153.594 26.0168 153.594 31.5246 153.594 37.0322C151.965 37.0516 150.336 37.0322 148.707 36.9741C146.346 33.1633 143.999 29.3428 141.667 25.5127C141.609 29.3523 141.589 33.1922 141.609 37.0322C140.367 37.0322 139.127 37.0322 137.885 37.0322C137.885 31.5246 137.885 26.0168 137.885 20.5093Z" fill="#52843E"/>
<path opacity="0.984" fill-rule="evenodd" clip-rule="evenodd" d="M156.852 20.5107C161.235 20.5107 165.617 20.5107 170 20.5107C170 21.5967 170 22.6828 170 23.7688C168.41 23.7688 166.82 23.7688 165.229 23.7688C165.229 28.1904 165.229 32.612 165.229 37.0338C163.988 37.0338 162.748 37.0338 161.506 37.0338C161.506 32.612 161.506 28.1904 161.506 23.7688C159.955 23.7688 158.403 23.7688 156.852 23.7688C156.852 22.6828 156.852 21.5967 156.852 20.5107Z" fill="#52843E"/>
<path opacity="0.978" fill-rule="evenodd" clip-rule="evenodd" d="M9.19234 32.8439C12.9577 32.5702 16.6036 33.0938 20.1301 34.4148C24.8715 36.44 27.8387 39.9503 29.0316 44.9452C25.0174 41.4939 20.3825 39.3413 15.1266 38.4873C13.8011 38.3815 12.4824 38.4203 11.1704 38.6037C17.2754 39.4458 22.5503 41.9669 26.9951 46.167C24.5072 47.5492 21.8308 48.131 18.9665 47.9124C15.7595 47.5885 12.8118 46.5413 10.1232 44.7707C6.16224 41.9345 2.78784 38.5213 0 34.5312C3.02369 33.6655 6.08777 33.1031 9.19234 32.8439Z" fill="#52843E"/>
<path opacity="0.966" fill-rule="evenodd" clip-rule="evenodd" d="M60.2736 38.6621C60.4014 38.7903 60.4209 38.9454 60.3319 39.1276C56.8196 49.0008 50.0514 55.4587 40.0271 58.5013C28.6563 61.1718 18.824 58.4375 10.5303 50.2981C8.84321 48.5328 7.42748 46.574 6.2832 44.4219C6.30263 44.3638 6.32196 44.3055 6.34139 44.2474C8.84659 46.4414 11.6974 48.0509 14.8937 49.0763C22.6709 55.5806 31.3977 57.2484 41.0745 54.0797C46.791 51.8345 51.2514 48.0917 54.4557 42.8512C56.5622 41.6735 58.5016 40.2772 60.2736 38.6621Z" fill="#8AC53E"/>
</g>
<defs>
<clipPath id="clip0_511_16074">
<rect width="170" height="59.5268" fill="white"/>
</clipPath>
</defs>
</svg>
